<?xml version="1.0" standalone="no"?>
<!DOCTYPE svg PUBLIC "-//W3C//DTD SVG 20010904//EN"
 "http://www.w3.org/TR/2001/REC-SVG-20010904/DTD/svg10.dtd">
<svg version="1.0" xmlns="http://www.w3.org/2000/svg"
 width="64.000000pt" height="64.000000pt" viewBox="0 0 64.000000 64.000000"
 preserveAspectRatio="xMidYMid meet">

<g transform="translate(0.000000,64.000000) scale(0.100000,-0.100000)"
fill="#000000" stroke="none">
<path d="M152 390 c-50 -87 -92 -162 -92 -164 0 -3 33 -24 72 -47 40 -23 88
-50 106 -61 17 -11 32 -17 32 -15 0 3 -38 37 -85 76 -47 40 -85 75 -85 79 0 5
47 64 104 132 104 124 105 125 84 143 -11 9 -25 17 -32 17 -6 0 -53 -72 -104
-160z"/>
<path d="M242 415 c-62 -74 -115 -141 -118 -149 -3 -9 28 -42 88 -92 51 -43
86 -69 77 -59 -8 11 -41 51 -72 88 -31 38 -57 71 -57 76 0 4 59 56 130 116
l131 109 -28 23 c-15 12 -30 22 -33 22 -3 1 -56 -60 -118 -134z"/>
<path d="M135 523 c-24 -62 -115 -316 -117 -329 -2 -12 23 -26 102 -55 57 -21
106 -37 108 -35 1 2 -40 28 -93 57 -52 30 -95 56 -95 59 0 3 38 70 84 150 57
97 81 147 73 151 -34 18 -55 19 -62 2z"/>
<path d="M320 404 c-74 -64 -136 -119 -138 -125 -4 -9 145 -189 156 -189 4 0
71 54 150 121 l143 120 -18 23 c-66 83 -140 166 -148 165 -5 0 -71 -52 -145
-115z"/>
</g>
</svg>
