<?xml version="1.0" standalone="no"?>
<!DOCTYPE svg PUBLIC "-//W3C//DTD SVG 20010904//EN"
 "http://www.w3.org/TR/2001/REC-SVG-20010904/DTD/svg10.dtd">
<svg version="1.0" xmlns="http://www.w3.org/2000/svg"
 width="512.000000pt" height="512.000000pt" viewBox="0 0 512.000000 512.000000"
 preserveAspectRatio="xMidYMid meet">

<g transform="translate(0.000000,512.000000) scale(0.100000,-0.100000)"
fill="#000000" stroke="none">
<path d="M1856 4509 c-2 -8 -68 -558 -146 -1224 -78 -665 -144 -1226 -147
-1245 l-6 -35 24 25 c13 14 43 41 66 60 l42 35 226 1175 c124 647 225 1180
225 1186 0 7 -36 14 -92 18 -51 4 -114 10 -140 13 -36 4 -49 2 -52 -8z"/>
<path d="M1421 3323 c1 -615 3 -1109 5 -1098 2 11 60 502 129 1090 69 589 128
1082 131 1098 l6 27 -136 0 -136 0 1 -1117z"/>
<path d="M2295 4427 c-13 -36 -421 -2212 -415 -2215 3 -1 31 1 60 5 l55 8 282
1065 c156 586 284 1072 286 1080 2 14 -33 24 -232 63 -21 5 -33 2 -36 -6z"/>
<path d="M2442 3272 c-161 -604 -292 -1103 -292 -1109 0 -6 19 -29 41 -52 39
-39 41 -44 36 -87 -3 -27 -25 -86 -55 -143 l-50 -98 37 -12 c20 -6 37 -7 39
-3 17 40 888 2508 887 2510 -4 5 -324 92 -338 92 -8 0 -111 -368 -305 -1098z"/>
<path d="M3260 4296 c0 -2 -198 -565 -440 -1252 -242 -687 -440 -1251 -440
-1255 0 -8 760 -272 767 -266 2 3 -22 50 -54 104 -129 214 -193 350 -193 409
0 29 83 124 109 124 9 0 36 11 60 25 60 35 104 39 186 20 154 -35 258 -120
496 -402 168 -199 183 -214 208 -208 28 7 176 78 202 98 9 7 151 399 317 872
165 473 326 930 356 1016 l54 156 -806 281 c-444 155 -810 282 -814 282 -5 0
-8 -2 -8 -4z"/>
<path d="M1067 4253 c-2 -5 22 -573 54 -1263 32 -690 58 -1288 58 -1327 1 -84
13 -93 55 -42 l26 31 0 1304 0 1304 -94 0 c-52 0 -97 -3 -99 -7z"/>
<path d="M807 3966 c-37 -7 -69 -15 -72 -18 -5 -5 251 -1662 260 -1683 2 -5 2
31 -1 80 -3 50 -18 389 -34 755 -16 366 -32 713 -36 773 -7 122 3 114 -117 93z"/>
<path d="M412 3476 c-148 -65 -182 -84 -178 -98 8 -33 640 -1507 644 -1503 2
2 -54 382 -124 844 -106 692 -131 841 -144 840 -8 -1 -97 -38 -198 -83z"/>
<path d="M4552 2272 c-19 -53 -33 -118 -37 -167 -10 -124 -35 -266 -56 -314
-46 -105 -143 -197 -293 -277 -111 -59 -240 -106 -271 -98 -15 4 -101 96 -230
245 -213 248 -281 312 -375 357 -68 33 -151 37 -192 9 l-27 -19 41 -81 c92
-185 309 -530 449 -714 79 -105 106 -161 140 -293 19 -74 49 -275 49 -331 l0
-29 513 0 514 0 31 98 c113 350 180 772 169 1060 -7 191 -40 293 -140 429 -48
64 -147 152 -215 191 l-39 22 -31 -88z"/>
<path d="M443 2291 c-108 -85 -196 -206 -238 -328 -38 -109 -48 -200 -42 -373
12 -285 57 -560 141 -854 26 -87 46 -159 46 -160 0 0 233 1 517 4 l517 5 13
117 c16 138 60 322 96 399 15 30 64 105 110 166 149 203 436 677 440 728 3 37
-35 57 -104 57 -110 0 -218 -83 -416 -323 -76 -91 -163 -195 -193 -231 -68
-81 -88 -92 -142 -78 -132 36 -342 155 -420 238 -84 89 -109 149 -128 302 -8
68 -22 113 -72 228 -34 78 -65 142 -69 142 -4 0 -29 -17 -56 -39z"/>
<path d="M1953 1463 c-13 -2 -23 -10 -23 -17 0 -11 16 -10 83 1 45 7 89 15 97
17 21 5 -130 4 -157 -1z"/>
<path d="M1933 1276 l-132 -21 -41 -58 c-22 -32 -40 -60 -40 -62 0 -3 195 80
320 138 66 31 61 31 -107 3z"/>
</g>
</svg>
